HIERARCHY
ROOT hip
{
  OFFSET 0.00112043 5.09927 -9.65472
  CHANNELS 6 Xposition Yposition Zposition Zrotation Xrotation Yrotation
  JOINT abdomen
  {
    OFFSET 0 -1.186 -1.5018
    CHANNELS 3 Zrotation Xrotation Yrotation
    JOINT abdomen2
    {
      OFFSET 0 9.964 0.2134
      CHANNELS 3 Zrotation Xrotation Yrotation
      JOINT chest
      {
        OFFSET 0 13.134 -3.2573
        CHANNELS 3 Zrotation Xrotation Yrotation
        JOINT neck
        {
          OFFSET 0 20.686 -1.6905
          CHANNELS 3 Zrotation Xrotation Yrotation
          JOINT head
          {
            OFFSET 0 7.238 -0.1237
            CHANNELS 3 Zrotation Xrotation Yrotation
            End Site
            {
              OFFSET 0 0 0
            }
          }
        }
        JOINT lCollar
        {
          OFFSET 1.7069 20.075 5.0056
          CHANNELS 3 Zrotation Xrotation Yrotation
          JOINT lShldr
          {
            OFFSET 13.6458 -0.047 -4.849
            CHANNELS 3 Zrotation Xrotation Yrotation
            JOINT lForeArm
            {
              OFFSET 28.3255 -0.9759 2.2888
              CHANNELS 3 Zrotation Xrotation Yrotation
              JOINT lHand
              {
                OFFSET 22.1583 -0.53 10.8316
                CHANNELS 3 Zrotation Xrotation Yrotation
                JOINT lThumb1
                {
                  OFFSET 0.786 0.112 2.5817
                  CHANNELS 3 Zrotation Xrotation Yrotation
                  JOINT lThumb2
                  {
                    OFFSET 0.3601 -0.878 4.2331
                    CHANNELS 3 Zrotation Xrotation Yrotation
                    JOINT lThumb2_End
                    {
                      OFFSET 1.8127 -1.216 2.2227
                      CHANNELS 3 Zrotation Xrotation Yrotation
                      End Site
                      {
                        OFFSET 0.0181 -0.0122 0.0222
                      }
                    }
                  }
                }
                JOINT lCarpal1
                {
                  OFFSET 0.9571 1.114 1.7695
                  CHANNELS 3 Zrotation Xrotation Yrotation
                  JOINT lIndex1
                  {
                    OFFSET 4.1246 0.487 4.1451
                    CHANNELS 3 Zrotation Xrotation Yrotation
                    JOINT lIndex2
                    {
                      OFFSET 3.4052 -1.454 2.7682
                      CHANNELS 3 Zrotation Xrotation Yrotation
                      JOINT lIndex2_End
                      {
                        OFFSET 1.4531 -1.795 1.2713
                        CHANNELS 3 Zrotation Xrotation Yrotation
                        End Site
                        {
                          OFFSET 0.0145 -0.0179 0.0127
                        }
                      }
                    }
                  }
                  JOINT lMid1
                  {
                    OFFSET 5.6954 0.21 2.1184
                    CHANNELS 3 Zrotation Xrotation Yrotation
                    JOINT lMid2
                    {
                      OFFSET 3.9766 -1.54 2.3863
                      CHANNELS 3 Zrotation Xrotation Yrotation
                      JOINT lMid2_End
                      {
                        OFFSET 1.4042 -1.926 1.125
                        CHANNELS 3 Zrotation Xrotation Yrotation
                        End Site
                        {
                          OFFSET 0.014 -0.0193 0.0113
                        }
                      }
                    }
                  }
                }
                JOINT lCarpal2
                {
                  OFFSET 2.0956 0.66 -0.3894
                  CHANNELS 3 Zrotation Xrotation Yrotation
                  JOINT lRing1
                  {
                    OFFSET 5.0395 -0.09 2.4971
                    CHANNELS 3 Zrotation Xrotation Yrotation
                    JOINT lRing2
                    {
                      OFFSET 3.7921 -1.552 1.4806
                      CHANNELS 3 Zrotation Xrotation Yrotation
                      JOINT lRing2_End
                      {
                        OFFSET 1.4655 -1.808 0.9609
                        CHANNELS 3 Zrotation Xrotation Yrotation
                        End Site
                        {
                          OFFSET 0.0147 -0.0181 0.0096
                        }
                      }
                    }
                  }
                  JOINT lPinky1
                  {
                    OFFSET 4.9141 -1.269 0.3591
                    CHANNELS 3 Zrotation Xrotation Yrotation
                    JOINT lPinky2
                    {
                      OFFSET 3.1477 -1.685 0.8462
                      CHANNELS 3 Zrotation Xrotation Yrotation
                      JOINT lPinky2_End
                      {
                        OFFSET 0.8055 -1.585 0.7955
                        CHANNELS 3 Zrotation Xrotation Yrotation
                        End Site
                        {
                          OFFSET 0.0081 -0.0158 0.008
                        }
                      }
                    }
                  }
                }
              }
            }
          }
        }
        JOINT rCollar
        {
          OFFSET -1.7069 20.075 5.0056
          CHANNELS 3 Zrotation Xrotation Yrotation
          JOINT rShldr
          {
            OFFSET -13.6458 -0.047 -4.849
            CHANNELS 3 Zrotation Xrotation Yrotation
            JOINT rForeArm
            {
              OFFSET -28.3255 -0.9759 2.2888
              CHANNELS 3 Zrotation Xrotation Yrotation
              JOINT rHand
              {
                OFFSET -22.1583 -0.53 10.8316
                CHANNELS 3 Zrotation Xrotation Yrotation
                JOINT rThumb1
                {
                  OFFSET -0.786 0.112 2.5817
                  CHANNELS 3 Zrotation Xrotation Yrotation
                  JOINT rThumb2
                  {
                    OFFSET -0.3601 -0.878 4.2331
                    CHANNELS 3 Zrotation Xrotation Yrotation
                    JOINT rThumb2_End
                    {
                      OFFSET -1.8127 -1.216 2.2227
                      CHANNELS 3 Zrotation Xrotation Yrotation
                      End Site
                      {
                        OFFSET -0.0181 -0.0122 0.0222
                      }
                    }
                  }
                }
                JOINT rCarpal1
                {
                  OFFSET -0.9571 1.114 1.7695
                  CHANNELS 3 Zrotation Xrotation Yrotation
                  JOINT rIndex1
                  {
                    OFFSET -4.1246 0.487 4.1451
                    CHANNELS 3 Zrotation Xrotation Yrotation
                    JOINT rIndex2
                    {
                      OFFSET -3.4052 -1.454 2.7682
                      CHANNELS 3 Zrotation Xrotation Yrotation
                      JOINT rIndex2_End
                      {
                        OFFSET -1.4531 -1.795 1.2713
                        CHANNELS 3 Zrotation Xrotation Yrotation
                        End Site
                        {
                          OFFSET -0.0145 -0.018 0.0127
                        }
                      }
                    }
                  }
                  JOINT rMid1
                  {
                    OFFSET -5.6954 0.21 2.1184
                    CHANNELS 3 Zrotation Xrotation Yrotation
                    JOINT rMid2
                    {
                      OFFSET -3.9766 -1.54 2.3863
                      CHANNELS 3 Zrotation Xrotation Yrotation
                      JOINT rMid2_End
                      {
                        OFFSET -1.4042 -1.926 1.125
                        CHANNELS 3 Zrotation Xrotation Yrotation
                        End Site
                        {
                          OFFSET -0.014 -0.0193 0.0113
                        }
                      }
                    }
                  }
                }
                JOINT rCarpal2
                {
                  OFFSET -2.0956 0.66 -0.3894
                  CHANNELS 3 Zrotation Xrotation Yrotation
                  JOINT rRing1
                  {
                    OFFSET -5.0395 -0.09 2.4971
                    CHANNELS 3 Zrotation Xrotation Yrotation
                    JOINT rRing2
                    {
                      OFFSET -3.7921 -1.552 1.4806
                      CHANNELS 3 Zrotation Xrotation Yrotation
                      JOINT rRing2_End
                      {
                        OFFSET -1.4655 -1.808 0.9609
                        CHANNELS 3 Zrotation Xrotation Yrotation
                        End Site
                        {
                          OFFSET -0.0147 -0.0181 0.0096
                        }
                      }
                    }
                  }
                  JOINT rPinky1
                  {
                    OFFSET -4.9141 -1.269 0.3592
                    CHANNELS 3 Zrotation Xrotation Yrotation
                    JOINT rPinky2
                    {
                      OFFSET -3.1477 -1.685 0.8462
                      CHANNELS 3 Zrotation Xrotation Yrotation
                      JOINT rPinky2_End
                      {
                        OFFSET -0.8055 -1.585 0.7955
                        CHANNELS 3 Zrotation Xrotation Yrotation
                        End Site
                        {
                          OFFSET -0.0081 -0.0158 0.008
                        }
                      }
                    }
                  }
                }
              }
            }
          }
        }
      }
    }
  }
  JOINT lThigh
  {
    OFFSET 8.367 -8.2066 0.5982
    CHANNELS 3 Zrotation Xrotation Yrotation
    JOINT lShin
    {
      OFFSET 2.1923 -43.463 -0.4932
      CHANNELS 3 Zrotation Xrotation Yrotation
      JOINT lFoot
      {
        OFFSET 0.7333 -45.8593 -2.6451
        CHANNELS 3 Zrotation Xrotation Yrotation
        End Site
        {
          OFFSET 2.6618 -4.2699 12.3931
        }
      }
    }
  }
  JOINT rThigh
  {
    OFFSET -8.367 -8.2066 0.5982
    CHANNELS 3 Zrotation Xrotation Yrotation
    JOINT rShin
    {
      OFFSET -2.1923 -43.463 -0.4931
      CHANNELS 3 Zrotation Xrotation Yrotation
      JOINT rFoot
      {
        OFFSET -0.7333 -45.8593 -2.6451
        CHANNELS 3 Zrotation Xrotation Yrotation
        End Site
        {
          OFFSET -2.6618 -4.2699 12.3931
        }
      }
    }
  }
}
MOTION
Frames:	4
Frame Time:	0.0333333
0 91.7903 2.51682 0 0 -0 0 0 -0 0 0 -0 0 0 -0 0 0 -0 0 0 -0 0 0 -0 1.66051 0.0835086 5.75766 -0.0175111 0.895433 15.7816 7.95139e-016 -1.98785e-016 -0 5.46658e-016 -3.97569e-016 -0 5.96354e-016 0 -0 3.97569e-016 1.98785e-016 9.54166e-015 1.49089e-016 -3.97569e-016 -0 6.4605e-016 0 3.18055e-015 5.96354e-016 0 3.18055e-015 8.94531e-016 -1.98785e-016 6.36111e-015 6.4605e-016 0 3.18055e-015 5.96354e-016 0 3.18055e-015 8.94531e-016 -1.98785e-016 6.36111e-015 1.49089e-016 -3.97569e-016 -0 6.4605e-016 0 3.18055e-015 5.96354e-016 0 3.18055e-015 8.94531e-016 -1.98785e-016 6.36111e-015 6.4605e-016 0 3.18055e-015 5.96354e-016 0 3.18055e-015 8.94531e-016 -1.98785e-016 6.36111e-015 0 0 -0 -1.4496 0.0636048 -5.0245 -1.74811 1.20616 -16.8394 -1.19271e-015 1.98785e-016 -3.18055e-015 -3.97569e-016 1.98785e-016 -3.18055e-015 -2.98177e-016 1.98785e-016 -3.18055e-015 -2.98177e-016 3.97569e-016 -0 4.96962e-016 0 -6.36111e-015 -9.93923e-017 3.97569e-016 -0 -8.94531e-016 5.96354e-016 -0 -3.97569e-016 3.97569e-016 -0 -9.93923e-017 3.97569e-016 -0 -8.94531e-016 5.96354e-016 -0 -3.97569e-016 3.97569e-016 -0 4.96962e-016 0 -6.36111e-015 -9.93923e-017 3.97569e-016 -0 -8.94531e-016 5.96354e-016 -0 -3.97569e-016 3.97569e-016 -0 -9.93923e-017 3.97569e-016 -0 -8.94531e-016 5.96354e-016 -0 -3.97569e-016 3.97569e-016 -0 -4.66111 -0.998717 0.12318 0.00986924 1.54847 0.176523 4.65186 -0.572283 -0.254274 4.66111 -0.998765 -0.123176 -0.00986867 1.54869 -0.176537 -4.65186 -0.572453 0.25427 
17.0514 20.924 -47.7088 113.312 54.832 -179.975 0.677839 2.09839 -0.34469 1.3697 4.19249 -0.714948 1.36968 4.19251 -0.714946 -0.00849264 30.295 -1.2125e-007 0.116579 3.26941 7.38978 -14.7164 0.0295295 -37.3293 -27.1853 -14.1338 -5.97735 6.69721 -11.6545 -1.87846 7.84774 -17.5702 -18.0935 2.52404e-006 -1.84569e-006 8.75698e-007 6.78349e-007 -4.36972e-006 1.93339e-006 -1.7514e-006 2.11538e-006 5.04807e-006 -1.76556e-031 -6.36111e-015 -1.59028e-015 2.52404e-006 -1.84569e-006 8.75698e-007 6.78349e-007 -4.36972e-006 1.93339e-006 -1.7514e-006 2.11538e-006 5.04807e-006 2.52404e-006 -1.84569e-006 8.75698e-007 6.78349e-007 -4.36972e-006 1.93339e-006 -1.7514e-006 2.11538e-006 5.04807e-006 -1.76556e-031 -6.36111e-015 -1.59028e-015 2.52404e-006 -1.84569e-006 8.75698e-007 6.78349e-007 -4.36972e-006 1.93339e-006 -1.7514e-006 2.11538e-006 5.04807e-006 2.52404e-006 -1.84569e-006 8.75698e-007 6.78349e-007 -4.36972e-006 1.93339e-006 -1.7514e-006 2.11538e-006 5.04807e-006 -0.250294 7.26817 14.8084 31.1708 21.8513 11.8887 30.7107 0.25624 71.4123 31.5684 3.44336 0.539895 -6.36111e-015 9.54166e-015 -0 3.62383e-006 -3.15103e-006 -3.23033e-006 -2.75533e-006 2.86641e-007 -1.49894e-006 8.82781e-032 3.18055e-015 -1.59028e-015 -3.18055e-015 6.36111e-015 -4.77083e-015 3.62383e-006 -3.15103e-006 -3.23033e-006 -2.75533e-006 2.86641e-007 -1.49894e-006 -3.18055e-015 6.36111e-015 -4.77083e-015 3.62383e-006 -3.15103e-006 -3.23033e-006 -2.75533e-006 2.86641e-007 -1.49894e-006 8.82781e-032 3.18055e-015 -1.59028e-015 -3.18055e-015 6.36111e-015 -4.77083e-015 3.62383e-006 -3.15103e-006 -3.23033e-006 -2.75533e-006 2.86641e-007 -1.49894e-006 -3.18055e-015 6.36111e-015 -4.77083e-015 3.62383e-006 -3.15103e-006 -3.23033e-006 -2.75533e-006 2.86641e-007 -1.49894e-006 1.2818 14.1541 0.28464 -3.24444 48.7357 4.70471 5.34738 10.016 -0.316969 0.212682 -16.9685 3.51254 29.3443 35.0613 -28.2996 -5.99339 23.0903 -8.87146 
29.455 1.41879 -83.4515 83.3332 -1.49356 -179.979 0.995492 2.99111 -0.51807 2.02219 5.97261 -1.09041 2.02218 5.97262 -1.09041 -0.0136173 44.1524 0.000929617 -0.106462 4.59529 10.7747 -21.4444 0.310995 -54.198 -41.9566 -20.1047 -11.7266 7.46795 -16.2081 -10.327 9.0958 -23.4654 -27.2994 -3.18055e-015 -6.36111e-015 -0 2.6238e-007 -3.27754e-007 7.72285e-008 -2.6238e-007 3.27754e-007 -7.72285e-008 -3.18055e-015 3.97569e-016 -1.59028e-015 -4.77083e-015 -1.03368e-014 3.18055e-015 2.6238e-007 -3.27754e-007 7.72285e-008 -2.6238e-007 3.27754e-007 -7.72285e-008 -4.77083e-015 -1.03368e-014 3.18055e-015 2.6238e-007 -3.27754e-007 7.72285e-008 -2.6238e-007 3.27754e-007 -7.72285e-008 -3.18055e-015 3.97569e-016 -1.59028e-015 -4.77083e-015 -1.03368e-014 3.18055e-015 2.6238e-007 -3.27754e-007 7.72285e-008 -2.6238e-007 3.27754e-007 -7.72285e-008 -4.77083e-015 -1.03368e-014 3.18055e-015 2.6238e-007 -3.27754e-007 7.72285e-008 -2.6238e-007 3.27754e-007 -7.72285e-008 -1.54972 10.3366 21.6198 41.2034 30.1469 21.4697 54.6285 -30.2809 96.0779 46.014 4.26569 -1.17089 3.18055e-015 3.18055e-015 1.59028e-015 7.36014e-007 1.13204e-006 -9.78149e-007 7.36014e-007 1.13204e-006 -9.78149e-007 6.36111e-015 1.27222e-014 1.59028e-015 -6.36111e-015 0 1.59028e-015 7.36014e-007 1.13204e-006 -9.78149e-007 7.36014e-007 1.13204e-006 -9.78149e-007 -6.36111e-015 0 1.59028e-015 7.36014e-007 1.13204e-006 -9.78149e-007 7.36014e-007 1.13204e-006 -9.78149e-007 6.36111e-015 1.27222e-014 1.59028e-015 -6.36111e-015 0 1.59028e-015 7.36014e-007 1.13204e-006 -9.78149e-007 7.36014e-007 1.13204e-006 -9.78149e-007 -6.36111e-015 0 1.59028e-015 7.36014e-007 1.13204e-006 -9.78149e-007 7.36014e-007 1.13204e-006 -9.78149e-007 3.67211 23.3913 0.141736 -6.94847 64.6498 8.25203 6.09252 17.6386 -0.458501 -0.735828 -26.314 5.04443 59.5259 45.4995 -51.5707 -5.31988 32.6958 -14.1364 
25.3052 5.8189 -75.7577 89.9956 11.0232 -179.98 0.92286 2.68512 -0.47034 1.87091 5.3622 -0.985599 1.8709 5.3622 -0.985598 -0.0126974 41.5702 0.00078312 -0.0466869 4.07785 10.1117 -20.2639 0.942399 -50.6098 -38.0864 -18.9571 -10.1483 7.46734 -15.3051 -8.20888 8.92949 -22.2922 -25.1864 2.86818e-007 -3.05116e-007 8.16837e-008 3.47292e-007 -1.91717e-006 -4.71848e-006 6.36111e-015 -1.25234e-014 -0 -0 -1.39149e-015 -0 2.86818e-007 -3.05116e-007 8.16837e-008 3.47292e-007 -1.91717e-006 -4.71848e-006 1.62763e-031 -1.17283e-014 7.95139e-016 2.86818e-007 -3.05116e-007 8.16837e-008 3.47292e-007 -1.91717e-006 -4.71848e-006 1.62763e-031 -1.17283e-014 7.95139e-016 -0 -1.39149e-015 -0 2.86818e-007 -3.05116e-007 8.16837e-008 3.47292e-007 -1.91717e-006 -4.71848e-006 1.62763e-031 -1.17283e-014 7.95139e-016 2.86818e-007 -3.05116e-007 8.16837e-008 3.47292e-007 -1.91717e-006 -4.71848e-006 1.62763e-031 -1.17283e-014 7.95139e-016 -1.10494 10.1189 20.019 39.2539 28.44 19.1802 48.0521 -22.5959 91.312 42.7956 4.14985 -0.697929 8.82781e-032 3.18055e-015 -1.59028e-015 8.82781e-032 6.36111e-015 -7.95139e-016 0 0 -1.59028e-015 4.41391e-032 3.18055e-015 -7.95139e-016 3.18055e-015 3.18055e-015 1.19271e-014 -3.18055e-015 -3.18055e-015 -0 -3.18055e-015 -3.18055e-015 -7.95139e-016 3.18055e-015 3.18055e-015 1.19271e-014 -3.18055e-015 -3.18055e-015 -0 -3.18055e-015 -3.18055e-015 -7.95139e-016 4.41391e-032 3.18055e-015 -7.95139e-016 3.18055e-015 3.18055e-015 1.19271e-014 -3.18055e-015 -3.18055e-015 -0 -3.18055e-015 -3.18055e-015 -7.95139e-016 3.18055e-015 3.18055e-015 1.19271e-014 -3.18055e-015 -3.18055e-015 -0 -3.18055e-015 -3.18055e-015 -7.95139e-016 3.20268 21.8297 0.115928 -5.66188 60.6438 6.96164 5.81402 15.9457 -0.4023 -0.692382 -24.4131 4.68306 51.886 43.9821 -45.6788 -5.57821 30.7623 -12.8687 
